{"glyphs":{":":{"x_min":0,"x_max":219,"ha":219,"o":"m 105 111 q 130 111 147 93 q 165 76 165 51 q 165 26 147 9 q 130 -8 105 -8 q 81 -8 63 9 q 46 26 46 51 q 46 76 63 93 q 80 111 105 111 z m 113 458 q 138 458 155 440 q 173 423 173 398 q 173 374 155 356 q 138 339 113 339 q 89 339 72 356 q 54 374 54 398 q 54 423 71 440 q 88 458 113 458 z"},"$":{"x_min":0,"x_max":542,"ha":542,"o":"m 321 691 l 321 655 q 418 640 470 596 l 470 484 q 409 546 321 567 l 321 369 q 410 343 456 292 q 502 242 502 176 q 502 110 457 58 q 434 32 404 16 q 374 0 321 -9 l 321 -117 l 239 -117 l 239 -9 q 156 -1 51 61 l 51 184 q 98 142 141 117 q 185 92 239 81 l 239 296 q 157 324 123 349 q 90 373 71 407 q 52 442 52 477 q 52 546 103 594 q 154 643 239 655 l 239 691 z m 239 395 l 239 567 q 199 562 174 538 q 149 515 149 484 q 149 456 166 437 q 183 418 227 400 q 234 397 239 395 z m 336 255 l 321 263 l 321 82 q 405 102 405 168 q 405 197 390 216 q 375 234 336 255 z"},"?":{"x_min":0,"x_max":333,"ha":333,"o":"m 65 585 l 129 692 q 208 689 249 648 q 290 606 290 546 q 290 507 274 463 q 258 419 203 335 q 139 236 139 195 q 139 188 142 175 q 109 190 94 211 q 80 232 80 268 q 80 302 92 329 q 103 356 147 425 q 189 491 189 535 q 189 565 170 583 q 151 601 120 601 q 97 601 65 585 z m 214 51 q 214 26 196 9 q 179 -8 153 -8 q 128 -8 112 9 q 95 25 95 50 q 95 75 112 93 q 129 111 154 111 q 179 111 197 94 q 214 76 214 51 z"},"<":{"x_min":0,"x_max":584,"ha":584,"o":"m 55 313 l 55 395 l 529 595 l 529 508 l 153 354 l 529 198 l 529 110 z"},"'":{"x_min":0,"x_max":188,"ha":188,"o":"m 121 462 l 66 462 l 44 596 l 44 716 l 144 716 l 144 596 z"},"=":{"x_min":0,"x_max":584,"ha":584,"o":"m 528 421 l 56 421 l 56 503 l 528 503 z m 528 204 l 56 204 l 56 286 l 528 286 z"},"a":{"x_min":0,"x_max":427,"ha":427,"o":"m 345 270 l 345 79 q 345 56 361 56 q 377 56 411 80 l 411 26 q 381 6 363 -1 q 344 -8 324 -8 q 267 -8 257 37 q 200 -7 136 -7 q 89 -7 58 24 q 27 55 27 102 q 27 145 57 178 q 88 211 144 231 l 258 270 l 258 294 q 258 375 177 375 q 104 375 35 300 l 35 397 q 87 458 184 458 q 257 458 301 420 q 315 408 327 387 q 339 367 342 347 q 345 327 345 270 z m 258 89 l 258 222 l 198 199 q 153 181 134 163 q 115 145 115 117 q 115 89 133 72 q 151 54 179 54 q 222 54 258 89 z"},"L":{"x_min":0,"x_max":490,"ha":490,"o":"m 75 682 l 173 682 l 173 89 l 480 89 l 480 0 l 75 0 z"},"3":{"x_min":0,"x_max":500,"ha":500,"o":"m 180 397 l 186 397 q 250 397 283 423 q 317 450 317 500 q 317 545 284 574 q 252 602 199 602 q 146 602 81 569 l 81 662 q 141 692 211 692 q 305 692 360 643 q 414 593 414 508 q 414 456 393 421 q 372 385 326 360 q 366 344 385 322 q 403 299 414 267 q 424 234 424 198 q 424 109 364 51 q 305 -8 214 -8 q 136 -8 64 30 l 64 136 q 141 88 214 88 q 263 88 293 117 q 323 146 323 195 q 323 235 298 266 q 284 283 266 291 q 248 299 189 306 l 180 307 z"},";":{"x_min":0,"x_max":229,"ha":229,"o":"m 101 -5 l 102 0 q 50 15 50 64 q 50 90 68 110 q 85 129 110 129 q 139 129 159 102 q 178 75 178 35 q 178 -19 147 -60 q 116 -101 61 -118 l 61 -100 q 82 -80 91 -59 q 100 -38 101 -5 z m 119 458 q 144 458 162 440 q 179 423 179 398 q 179 374 162 356 q 144 339 120 339 q 95 339 78 356 q 60 374 60 398 q 60 423 77 440 q 95 458 119 458 z"},"J":{"x_min":0,"x_max":250,"ha":250,"o":"m 76 682 l 174 682 l 174 9 q 174 -85 155 -131 q 135 -176 92 -203 q 49 -230 -11 -230 q -21 -230 -43 -227 l -61 -136 l -36 -136 q 6 -136 28 -126 q 50 -116 63 -90 q 76 -64 76 20 z"},"V":{"x_min":0,"x_max":604,"ha":604,"o":"m 507 682 l 604 682 l 316 -3 l 294 -3 l 0 682 l 98 682 l 303 203 z"},"\"":{"x_min":0,"x_max":354,"ha":354,"o":"m 124 462 l 70 462 l 46 599 l 46 716 l 146 716 l 146 599 z m 285 462 l 232 462 l 208 599 l 208 716 l 308 716 l 308 599 z"},"7":{"x_min":0,"x_max":500,"ha":500,"o":"m 49 682 l 490 682 l 181 -8 l 94 29 l 344 589 l 49 589 z"},"S":{"x_min":0,"x_max":458,"ha":458,"o":"m 244 286 l 170 331 q 100 374 71 415 q 41 456 41 510 q 41 590 97 641 q 153 691 242 691 q 328 691 399 643 l 399 532 q 325 603 240 603 q 192 603 162 581 q 131 559 131 524 q 131 493 153 466 q 176 439 226 410 l 301 366 q 426 292 426 177 q 426 95 371 43 q 316 -8 228 -8 q 127 -8 44 54 l 44 178 q 123 78 227 78 q 273 78 303 104 q 334 129 334 168 q 334 230 244 286 z"},"}":{"x_min":0,"x_max":333,"ha":333,"o":"m 23 728 l 50 728 q 99 728 125 719 q 152 709 170 685 q 191 656 198 623 q 204 590 205 488 q 205 402 213 368 q 222 333 246 316 q 270 299 305 299 l 305 219 q 273 219 248 202 q 222 185 213 150 q 204 116 204 30 q 203 -72 197 -105 q 191 -139 170 -167 q 151 -191 125 -200 q 100 -209 50 -209 l 23 -209 l 23 -133 l 38 -133 q 90 -133 106 -114 q 122 -95 122 -32 l 122 38 q 122 138 145 186 q 167 235 224 259 q 183 279 163 301 q 144 324 133 366 q 122 409 122 479 l 122 551 q 122 614 106 633 q 90 652 38 652 l 23 652 z"},"Z":{"x_min":0,"x_max":646,"ha":646,"o":"m 40 683 l 628 683 l 192 87 l 628 87 l 628 0 l 12 0 l 449 596 l 40 596 z"},"x":{"x_min":0,"x_max":500,"ha":500,"o":"m 373 449 l 487 449 l 302 228 l 500 0 l 386 0 l 245 161 l 112 0 l 0 0 l 189 228 l 0 449 l 112 449 l 245 295 z"},")":{"x_min":0,"x_max":323,"ha":323,"o":"m 67 -229 l 12 -229 q 76 -133 103 -67 q 129 0 143 80 q 156 160 156 233 q 156 318 140 397 q 125 477 94 549 q 64 620 12 691 l 67 691 l 82 673 q 137 608 163 565 q 190 523 216 455 q 259 346 259 231 q 259 121 220 19 q 201 -32 172 -83 q 143 -133 67 -229 z"},"&":{"x_min":0,"x_max":625,"ha":625,"o":"m 495 0 l 416 93 q 406 83 381 63 l 380 62 q 345 33 294 13 q 243 -8 198 -8 q 127 -8 78 38 q 29 84 29 151 q 29 199 53 237 q 77 276 132 316 l 133 317 q 166 341 189 354 q 112 437 112 512 q 112 582 159 625 q 207 669 282 669 q 356 669 404 626 q 452 584 452 518 q 452 429 333 344 l 326 339 l 422 229 q 464 275 495 339 l 593 339 q 558 248 482 160 l 620 0 z m 334 141 l 356 161 l 245 289 l 202 259 q 126 208 126 155 q 126 126 151 105 q 176 85 211 85 q 238 85 273 101 q 307 116 334 141 z m 271 405 l 308 431 q 360 468 360 516 q 360 546 338 566 q 316 586 283 586 q 251 586 230 567 q 209 549 209 521 q 209 494 226 463 q 242 431 271 405 z"},"_":{"x_min":0,"x_max":552,"ha":552,"o":"m 567 -198 l -14 -198 l -14 -134 l 567 -134 z"},"v":{"x_min":0,"x_max":438,"ha":438,"o":"m 338 449 l 434 449 l 236 -8 l 206 -8 l 3 449 l 100 449 l 221 173 z"},"O":{"x_min":0,"x_max":823,"ha":823,"o":"m 410 692 q 568 692 674 592 q 779 492 779 341 q 779 190 673 91 q 566 -8 405 -8 q 250 -8 148 91 q 45 190 45 339 q 45 492 148 592 q 252 692 410 692 z m 414 599 q 297 599 221 526 q 146 453 146 339 q 146 229 222 155 q 297 82 411 82 q 525 82 602 157 q 678 231 678 343 q 678 451 602 525 q 525 599 414 599 z"},"(":{"x_min":0,"x_max":323,"ha":323,"o":"m 256 691 l 311 691 q 250 600 222 536 q 195 471 181 388 q 167 305 167 227 q 167 -40 311 -229 l 256 -229 l 241 -211 q 186 -145 159 -102 q 133 -60 106 8 q 64 117 64 230 q 64 345 106 452 q 149 560 256 691 z"},"C":{"x_min":0,"x_max":708,"ha":708,"o":"m 663 158 l 663 51 q 556 -8 415 -8 q 301 -8 221 38 q 142 84 95 165 q 49 245 49 339 q 49 488 155 589 q 261 691 417 691 q 524 691 656 635 l 656 530 q 536 598 422 598 q 305 598 227 524 q 150 450 150 339 q 150 227 226 154 q 302 82 421 82 q 545 82 663 158 z"},"W":{"x_min":0,"x_max":1042,"ha":1042,"o":"m 944 682 l 1041 682 l 765 -3 l 744 -3 l 521 552 l 296 -3 l 275 -3 l 0 682 l 98 682 l 286 212 l 475 682 l 568 682 l 758 212 z"},"A":{"x_min":0,"x_max":667,"ha":667,"o":"m 293 686 l 362 686 l 667 0 l 567 0 l 476 202 l 186 202 l 100 0 l 0 0 z m 436 289 l 326 536 l 224 289 z"},"f":{"x_min":0,"x_max":250,"ha":250,"o":"m 73 449 l 73 476 q 73 584 119 638 q 166 691 230 691 q 258 691 296 682 l 296 595 q 274 603 255 603 q 203 603 182 575 q 162 547 162 476 l 162 449 l 242 449 l 242 369 l 162 369 l 162 0 l 73 0 l 73 369 l 9 369 l 9 449 z"},"Q":{"x_min":0,"x_max":823,"ha":823,"o":"m 763 -43 l 665 -138 q 619 -136 569 -122 q 519 -108 468 -83 q 416 -59 330 0 q 206 22 125 118 q 44 214 44 339 q 44 492 148 592 q 252 692 411 692 q 569 692 674 593 q 779 493 779 343 q 779 216 700 121 q 621 25 495 0 l 521 -10 q 642 -56 695 -56 q 724 -56 763 -43 z m 411 599 q 296 599 221 525 q 146 451 146 338 q 146 228 221 155 q 297 82 411 82 q 524 82 601 157 q 678 231 678 341 q 678 453 603 526 q 527 599 411 599 z"},"w":{"x_min":0,"x_max":719,"ha":719,"o":"m 624 449 l 719 449 l 521 -8 l 493 -8 l 360 305 l 229 -8 l 200 -8 l 0 449 l 95 449 l 213 177 l 327 449 l 393 449 l 507 177 z"},"-":{"x_min":0,"x_max":323,"ha":323,"o":"m 40 269 l 283 269 l 283 174 l 40 174 z"},"E":{"x_min":0,"x_max":500,"ha":500,"o":"m 75 682 l 462 682 l 462 595 l 173 595 l 173 387 l 452 387 l 452 300 l 173 300 l 173 88 l 471 88 l 471 1 l 75 1 z"},"s":{"x_min":0,"x_max":385,"ha":385,"o":"m 41 32 l 41 128 q 79 102 118 85 q 157 69 184 69 q 212 69 232 83 q 252 96 252 115 q 252 135 239 148 q 226 161 183 185 q 97 233 71 267 q 44 301 44 341 q 44 393 84 425 q 125 458 188 458 q 254 458 323 421 l 323 333 q 244 381 194 381 q 168 381 152 370 q 136 359 136 341 q 136 325 151 311 q 165 297 201 277 l 233 259 q 345 195 345 118 q 345 63 302 28 q 259 -8 191 -8 q 151 -8 120 1 q 88 9 41 32 z"},">":{"x_min":0,"x_max":584,"ha":584,"o":"m 529 313 l 55 110 l 55 198 l 430 354 l 55 508 l 55 595 l 529 395 z"},"l":{"x_min":0,"x_max":219,"ha":219,"o":"m 65 682 l 154 682 l 154 0 l 65 0 z"},"8":{"x_min":0,"x_max":500,"ha":500,"o":"m 48 499 q 48 579 108 635 q 168 691 255 691 q 340 691 399 635 q 458 580 458 499 q 458 408 373 348 q 468 293 468 187 q 468 103 406 47 q 345 -8 251 -8 q 158 -8 95 49 q 32 105 32 188 q 32 292 129 348 q 85 383 67 418 q 48 453 48 499 z m 361 496 q 361 541 330 569 q 300 598 253 598 q 206 598 175 570 q 145 542 145 497 q 145 455 177 424 q 209 394 254 394 q 298 394 330 424 q 361 454 361 496 z m 369 183 l 369 193 q 369 240 336 269 q 302 299 249 299 q 197 299 164 269 q 131 239 131 192 q 131 145 165 115 q 198 85 252 85 q 303 85 336 112 q 369 140 369 183 z"},"\\":{"x_min":0,"x_max":281,"ha":281,"o":"m 208 -9 l 12 691 l 83 691 l 278 -9 z"},"e":{"x_min":0,"x_max":479,"ha":479,"o":"m 446 217 l 130 217 q 133 152 173 114 q 213 76 276 76 q 364 76 438 131 l 438 44 q 397 17 357 5 q 316 -7 262 -7 q 188 -7 142 24 q 96 55 69 107 q 41 159 41 227 q 41 330 99 394 q 157 458 250 458 q 339 458 393 396 q 446 333 446 228 z m 132 270 l 358 270 q 354 323 326 352 q 298 381 250 381 q 202 381 172 352 q 141 323 132 270 z"},"b":{"x_min":0,"x_max":500,"ha":500,"o":"m 59 682 l 148 682 l 148 417 q 206 459 271 459 q 356 459 411 395 q 465 330 465 229 q 465 121 400 56 q 335 -8 227 -8 q 184 -8 135 1 q 87 11 59 25 z m 148 332 l 148 89 q 193 75 241 75 q 300 75 338 117 q 375 159 375 225 q 375 292 340 334 q 305 376 249 376 q 199 376 148 332 z"},"%":{"x_min":0,"x_max":676,"ha":676,"o":"m 523 692 l 598 692 l 149 -8 l 74 -8 z m 499 297 q 561 297 606 252 q 651 208 651 145 q 651 83 606 39 q 562 -5 499 -5 q 435 -5 390 39 q 346 83 346 145 q 346 208 391 252 q 436 297 499 297 z m 498 223 q 465 223 443 200 q 420 177 420 145 q 420 112 443 89 q 465 66 498 66 q 531 66 554 89 q 577 112 577 145 q 577 178 554 200 q 531 223 498 223 z m 177 690 q 240 690 284 645 q 329 600 329 537 q 329 475 284 430 q 239 385 177 385 q 114 385 70 430 q 25 475 25 537 q 25 600 69 645 q 114 690 177 690 z m 176 616 q 143 616 120 593 q 97 570 97 537 q 97 505 120 482 q 144 459 176 459 q 208 459 232 482 q 255 505 255 537 q 255 570 232 593 q 209 616 176 616 z"},"m":{"x_min":0,"x_max":771,"ha":771,"o":"m 431 326 l 431 0 l 342 0 l 342 250 q 342 325 322 354 q 302 384 252 384 q 224 384 201 371 q 178 358 148 326 l 148 0 l 59 0 l 59 449 l 148 449 l 148 390 q 216 458 281 458 q 366 458 413 377 q 484 459 562 459 q 627 459 670 411 q 712 363 712 265 l 712 0 l 623 0 l 623 266 q 623 322 600 352 q 577 382 534 382 q 479 382 431 326 z"},"#":{"x_min":0,"x_max":584,"ha":584,"o":"m 2 425 l 2 485 l 161 485 l 203 682 l 262 682 l 220 485 l 426 485 l 467 682 l 527 682 l 485 485 l 582 485 l 582 425 l 473 425 l 436 244 l 582 244 l 582 184 l 424 184 l 383 -11 l 323 -11 l 365 184 l 158 184 l 117 -11 l 57 -11 l 98 184 l 2 184 l 2 244 l 111 244 l 149 425 z m 414 425 l 208 425 l 170 244 l 377 244 z"},",":{"x_min":0,"x_max":219,"ha":219,"o":"m 49 -118 l 49 -100 q 71 -79 80 -58 q 88 -37 90 0 q 38 15 38 64 q 38 90 56 110 q 74 129 98 129 q 128 129 147 103 q 166 76 166 35 q 166 -19 135 -60 q 104 -101 49 -118 z"},"n":{"x_min":0,"x_max":500,"ha":500,"o":"m 152 449 l 152 392 q 211 458 287 458 q 329 458 365 436 q 401 415 420 377 q 439 339 439 257 l 439 0 l 350 0 l 350 256 q 350 325 329 354 q 308 384 259 384 q 196 384 152 321 l 152 0 l 61 0 l 61 449 z"},"h":{"x_min":0,"x_max":500,"ha":500,"o":"m 61 682 l 150 682 l 150 390 q 206 458 288 458 q 333 458 369 436 q 404 413 422 374 q 439 334 439 256 l 439 0 l 350 0 l 350 278 q 350 327 326 357 q 302 387 262 387 q 233 387 207 372 q 181 357 150 322 l 150 0 l 61 0 z"},"z":{"x_min":0,"x_max":417,"ha":417,"o":"m 21 449 l 405 449 l 167 83 l 405 83 l 405 0 l 11 0 l 247 366 l 21 366 z"},"B":{"x_min":0,"x_max":563,"ha":563,"o":"m 306 0 l 75 0 l 75 682 l 254 682 q 338 682 386 659 q 433 637 458 597 q 483 557 483 505 q 483 404 379 361 q 454 347 498 299 q 542 252 542 186 q 542 134 515 93 q 488 52 436 26 q 384 0 306 0 z m 257 595 l 173 595 l 173 390 l 238 390 q 316 390 349 420 q 382 450 382 497 q 382 595 257 595 z m 264 303 l 173 303 l 173 87 l 269 87 q 349 87 378 99 q 406 112 424 138 q 441 165 441 195 q 441 226 423 252 q 404 278 371 291 q 337 303 264 303 z"},"K":{"x_min":0,"x_max":656,"ha":656,"o":"m 461 682 l 583 682 l 287 359 l 656 0 l 522 0 l 174 337 l 174 0 l 76 0 l 76 682 l 174 682 l 174 370 z"},"R":{"x_min":0,"x_max":604,"ha":604,"o":"m 78 0 l 78 682 l 249 682 q 353 682 413 631 q 474 580 474 492 q 474 433 444 389 q 415 346 359 324 q 392 303 423 266 q 454 229 511 136 q 546 78 568 49 l 604 0 l 488 0 l 458 45 q 457 47 452 53 l 433 80 l 403 130 l 370 183 q 340 225 315 250 q 290 275 269 286 q 249 297 201 297 l 176 297 l 176 0 z m 205 599 l 176 599 l 176 384 l 213 384 q 287 384 315 396 q 342 409 358 435 q 373 460 373 493 q 373 525 356 552 q 339 578 308 588 q 277 599 205 599 z"},"T":{"x_min":0,"x_max":604,"ha":604,"o":"m 17 683 l 587 683 l 587 596 l 349 596 l 349 0 l 251 0 l 251 596 l 17 596 z"},"P":{"x_min":0,"x_max":510,"ha":510,"o":"m 70 0 l 70 683 l 286 683 q 384 683 442 630 q 500 578 500 489 q 500 429 470 383 q 440 337 389 317 q 337 296 240 296 l 168 296 l 168 0 z m 269 596 l 168 596 l 168 383 l 275 383 q 334 383 367 411 q 399 439 399 491 q 399 596 269 596 z"},"|":{"x_min":0,"x_max":260,"ha":260,"o":"m 92 -230 l 92 682 l 168 682 l 168 -230 z"},"t":{"x_min":0,"x_max":333,"ha":333,"o":"m 0 378 l 167 542 l 167 449 l 309 449 l 309 369 l 167 369 l 167 149 q 167 72 231 72 q 279 72 332 104 l 332 21 q 281 -8 220 -8 q 159 -8 119 28 q 106 39 98 52 q 89 65 84 87 q 78 109 78 170 l 78 369 l 0 369 z"},"M":{"x_min":0,"x_max":781,"ha":781,"o":"m 618 682 l 709 682 l 709 0 l 611 0 l 611 531 l 401 267 l 383 267 l 171 531 l 171 0 l 73 0 l 73 682 l 165 682 l 392 402 z"},"g":{"x_min":0,"x_max":427,"ha":427,"o":"m 40 294 q 40 366 93 407 q 145 449 236 449 l 421 449 l 421 380 l 330 380 q 356 353 367 331 q 377 309 377 281 q 377 246 357 212 q 337 178 305 160 q 274 142 202 131 q 152 124 152 96 q 152 81 171 71 q 189 61 239 50 q 321 32 345 21 q 369 11 388 -8 q 420 -40 420 -89 q 420 -153 363 -191 q 306 -229 211 -229 q 115 -229 57 -191 q 0 -152 0 -88 q 0 3 113 30 q 68 59 68 87 q 68 108 87 126 q 106 144 139 152 q 40 196 40 294 z m 207 372 q 171 372 146 348 q 120 323 120 289 q 120 254 145 232 q 170 209 208 209 q 246 209 271 232 q 296 255 296 290 q 296 325 271 349 q 245 372 207 372 z m 186 -21 q 141 -21 113 -40 q 84 -59 84 -89 q 84 -158 209 -158 q 268 -158 301 -141 q 333 -124 333 -92 q 333 -61 292 -41 q 251 -21 186 -21 z"},"j":{"x_min":0,"x_max":219,"ha":219,"o":"m 104 638 q 126 638 142 623 q 157 607 157 586 q 157 563 142 548 q 127 533 105 533 q 84 533 68 549 q 52 564 52 586 q 52 606 68 622 q 83 638 104 638 z m 62 449 l 151 449 l 151 -64 q 151 -181 61 -229 l -5 -164 q 26 -153 44 -126 q 62 -100 62 -64 z"},"i":{"x_min":0,"x_max":219,"ha":219,"o":"m 109 638 q 131 638 146 623 q 162 608 162 586 q 162 564 146 549 q 131 533 109 533 q 88 533 73 549 q 57 565 57 586 q 57 606 73 622 q 88 638 109 638 z m 65 449 l 154 449 l 154 0 l 65 0 z"},"y":{"x_min":0,"x_max":438,"ha":438,"o":"m 338 449 l 438 449 l 120 -229 l 21 -229 l 174 96 l 0 449 l 101 449 l 222 196 z"},"@":{"x_min":0,"x_max":1010,"ha":1010,"o":"m 494 529 q 588 529 641 439 l 658 515 l 746 515 l 668 153 q 661 122 661 112 q 661 98 671 89 q 681 79 695 79 q 727 79 776 120 q 826 161 854 222 q 883 284 883 350 q 883 482 783 570 q 684 658 534 658 q 358 658 242 539 q 127 419 127 237 q 127 59 238 -39 q 349 -137 550 -137 q 668 -137 756 -97 q 789 -82 825 -57 q 860 -33 891 9 l 979 9 q 950 -50 882 -104 q 814 -158 734 -183 q 654 -208 548 -208 q 318 -208 186 -92 q 54 25 54 228 q 54 368 119 489 q 184 610 291 670 q 398 729 539 729 q 721 729 839 621 q 957 513 957 347 q 957 261 915 179 q 873 98 804 49 q 735 -1 662 -1 q 613 -1 592 17 q 571 35 567 80 q 535 42 496 21 q 457 0 418 0 q 342 0 292 62 q 241 125 241 218 q 241 294 277 367 q 313 440 373 484 q 432 529 494 529 z m 331 210 q 331 149 361 110 q 391 71 436 71 q 504 71 558 146 q 613 222 613 317 q 613 380 582 419 q 551 458 500 458 q 434 458 383 382 q 331 306 331 210 z"},".":{"x_min":0,"x_max":219,"ha":219,"o":"m 109 109 q 134 109 151 92 q 169 75 169 50 q 169 25 152 9 q 134 -8 109 -8 q 84 -8 67 9 q 50 25 50 50 q 50 75 67 92 q 84 109 109 109 z"},"p":{"x_min":0,"x_max":500,"ha":500,"o":"m 57 -229 l 57 449 l 213 449 q 333 449 399 390 q 466 330 466 223 q 466 122 403 57 q 340 -8 243 -8 q 200 -8 148 11 l 148 -229 z m 211 366 l 148 366 l 148 90 q 189 69 234 69 q 296 69 336 112 q 376 156 376 224 q 376 268 357 302 q 338 335 306 351 q 273 366 211 366 z"},"X":{"x_min":0,"x_max":708,"ha":708,"o":"m 569 682 l 687 682 l 415 353 l 706 0 l 588 0 l 356 282 l 121 0 l 2 0 l 296 353 l 23 682 l 142 682 l 356 422 z"},"*":{"x_min":0,"x_max":417,"ha":417,"o":"m 217 538 l 219 538 q 229 538 237 528 l 321 608 q 347 633 367 633 q 380 633 390 623 q 399 613 399 598 q 399 565 361 555 l 350 552 l 243 513 q 245 507 245 501 q 245 495 243 490 l 356 448 l 378 437 q 386 432 393 422 q 399 412 399 404 q 399 393 389 381 q 380 370 367 370 q 343 370 310 403 l 237 476 q 227 466 217 466 l 237 363 q 241 344 241 318 q 241 275 208 275 q 174 275 174 322 q 174 335 177 347 l 202 466 q 193 467 183 476 l 105 404 q 68 371 50 371 q 37 371 27 381 q 17 391 17 404 q 17 436 77 456 l 176 490 q 174 498 174 502 l 176 513 l 63 555 q 19 571 19 597 q 19 611 29 623 q 40 634 53 634 q 64 634 85 618 l 98 608 l 183 528 q 191 537 202 538 l 183 638 l 178 659 q 176 670 176 681 q 176 726 210 726 q 243 726 243 686 q 243 672 237 640 z"},"Y":{"x_min":0,"x_max":604,"ha":604,"o":"m 486 682 l 604 682 l 352 361 l 352 0 l 252 0 l 252 361 l 0 682 l 118 682 l 301 447 z"},"c":{"x_min":0,"x_max":438,"ha":438,"o":"m 400 105 l 400 17 q 333 -8 269 -8 q 164 -8 101 55 q 38 117 38 222 q 38 328 99 393 q 160 458 260 458 q 294 458 322 451 q 350 445 390 427 l 390 332 q 323 375 265 375 q 205 375 167 333 q 128 291 128 225 q 128 156 170 116 q 211 75 282 75 q 333 75 400 105 z"},"!":{"x_min":0,"x_max":271,"ha":271,"o":"m 196 51 q 196 26 178 9 q 161 -8 136 -8 q 110 -8 92 9 q 74 26 74 51 q 74 77 92 95 q 109 113 135 113 q 161 113 178 95 q 196 77 196 51 z m 125 213 l 117 238 q 107 267 94 371 q 80 475 80 548 q 80 691 136 691 q 191 691 191 552 q 191 436 169 315 l 156 240 l 148 212 q 144 197 135 197 q 129 197 125 213 z"},"/":{"x_min":0,"x_max":281,"ha":281,"o":"m 2 -9 l 199 691 l 269 691 l 73 -9 z"},"[":{"x_min":0,"x_max":333,"ha":333,"o":"m 86 682 l 319 682 l 319 602 l 182 602 l 182 -140 l 319 -140 l 319 -220 l 86 -220 z"},"6":{"x_min":0,"x_max":500,"ha":500,"o":"m 307 684 l 317 691 l 376 616 q 298 566 246 506 q 195 447 167 366 q 221 394 275 394 q 355 394 411 337 q 466 280 466 197 q 466 111 406 52 q 346 -8 260 -8 q 164 -8 104 60 q 45 127 45 237 q 45 319 75 400 q 106 481 163 552 q 221 624 307 684 z m 146 265 q 142 242 142 214 q 142 156 176 119 q 209 82 261 82 q 308 82 339 114 q 369 146 369 194 q 369 243 337 274 q 304 304 251 304 q 224 304 201 296 q 179 288 146 265 z"},"r":{"x_min":0,"x_max":396,"ha":396,"o":"m 158 449 l 158 346 l 163 354 q 228 458 292 458 q 342 458 397 407 l 350 329 q 304 373 264 373 q 221 373 190 332 q 158 291 158 235 l 158 0 l 69 0 l 69 449 z"},"2":{"x_min":0,"x_max":500,"ha":500,"o":"m 206 94 l 466 94 l 466 0 l 34 0 l 34 7 l 75 55 q 171 174 228 257 q 285 340 302 383 q 320 425 320 467 q 320 524 287 559 q 254 594 200 594 q 159 594 119 570 q 80 546 48 502 l 48 626 q 127 691 212 691 q 301 691 359 631 q 417 572 417 480 q 417 439 403 392 q 388 346 352 285 q 315 224 227 119 z"},"{":{"x_min":0,"x_max":333,"ha":333,"o":"m 28 219 l 28 299 q 63 299 87 316 q 111 333 120 367 q 128 401 129 488 q 130 591 136 625 q 142 658 164 686 q 183 709 209 719 q 235 728 283 728 l 311 728 l 311 652 l 295 652 q 244 652 228 633 q 212 613 212 551 l 212 479 q 212 414 203 373 q 193 332 173 305 q 153 279 109 259 q 167 235 189 187 q 212 138 212 38 l 212 -32 q 212 -95 228 -114 q 243 -133 295 -133 l 311 -133 l 311 -209 l 283 -209 q 233 -209 207 -199 q 181 -190 163 -166 q 142 -138 136 -104 q 130 -71 129 30 q 128 118 119 151 q 110 185 85 202 q 60 219 28 219 z"},"9":{"x_min":0,"x_max":500,"ha":500,"o":"m 187 -8 l 127 63 q 203 111 259 179 q 316 247 335 319 q 289 290 226 290 q 148 290 92 348 q 36 406 36 488 q 36 573 96 632 q 155 691 241 691 q 338 691 399 621 q 461 551 461 442 q 461 318 384 191 q 307 64 187 -8 z m 354 416 q 360 455 360 467 q 360 526 327 563 q 294 601 242 601 q 195 601 164 569 q 133 537 133 489 q 133 444 167 412 q 200 380 247 380 q 302 380 354 416 z"}," ":{"x_min":0,"x_max":278,"ha":278,"o":""},"I":{"x_min":0,"x_max":250,"ha":250,"o":"m 76 682 l 174 682 l 174 0 l 76 0 z"},"H":{"x_min":0,"x_max":729,"ha":729,"o":"m 556 682 l 654 682 l 654 0 l 556 0 l 556 297 l 173 297 l 173 0 l 75 0 l 75 682 l 173 682 l 173 387 l 556 387 z"},"4":{"x_min":0,"x_max":500,"ha":500,"o":"m 355 691 l 395 691 l 395 308 l 471 308 l 471 225 l 395 225 l 395 0 l 300 0 l 300 225 l 11 225 l 11 267 z m 300 308 l 300 506 l 142 308 z"},"~":{"x_min":0,"x_max":583,"ha":583,"o":"m 170 327 q 136 327 109 313 q 82 299 42 261 l 42 361 q 95 420 178 420 q 234 420 312 386 l 351 369 q 381 355 416 355 q 480 355 542 421 l 542 318 q 482 262 407 262 q 356 262 287 292 l 257 305 q 206 327 170 327 z"},"D":{"x_min":0,"x_max":750,"ha":750,"o":"m 76 1 l 76 682 l 306 682 q 445 682 526 640 q 607 599 655 518 q 703 437 703 341 q 703 272 677 210 q 650 147 602 100 q 552 51 486 26 q 447 11 415 6 q 383 1 292 1 z m 296 595 l 174 595 l 174 88 l 299 88 q 372 88 413 98 q 453 108 480 123 q 507 139 530 161 q 602 234 602 346 q 602 456 528 525 q 500 551 465 568 q 430 584 398 590 q 366 595 296 595 z"},"^":{"x_min":0,"x_max":469,"ha":469,"o":"m 234 583 l 116 291 l 26 291 l 199 682 l 270 682 l 443 291 l 354 291 z"},"0":{"x_min":0,"x_max":500,"ha":500,"o":"m 254 691 q 348 691 409 593 q 470 494 470 343 q 470 188 409 90 q 348 -7 250 -7 q 151 -7 91 88 q 31 184 31 341 q 31 496 93 594 q 155 691 254 691 z m 255 598 l 250 598 q 194 598 161 529 q 128 460 128 342 q 128 221 160 152 q 192 83 249 83 q 306 83 338 152 q 371 221 371 339 q 371 458 340 528 q 308 598 255 598 z"},"F":{"x_min":0,"x_max":469,"ha":469,"o":"m 76 682 l 440 682 l 440 595 l 174 595 l 174 405 l 440 405 l 440 318 l 174 318 l 174 0 l 76 0 z"},"`":{"x_min":0,"x_max":333,"ha":333,"o":"m 160 693 l 227 546 l 172 546 l 60 693 z"},"k":{"x_min":0,"x_max":479,"ha":479,"o":"m 355 449 l 461 449 l 269 229 l 500 0 l 381 0 l 156 229 z m 63 682 l 152 682 l 152 0 l 63 0 z"},"u":{"x_min":0,"x_max":500,"ha":500,"o":"m 349 0 l 349 57 q 321 26 284 9 q 248 -8 212 -8 q 169 -8 134 13 q 98 35 79 71 q 61 107 61 192 l 61 449 l 150 449 l 150 193 q 150 122 170 94 q 190 66 241 66 q 305 66 349 128 l 349 449 l 438 449 l 438 0 z"},"]":{"x_min":0,"x_max":333,"ha":333,"o":"m 247 -220 l 15 -220 l 15 -140 l 151 -140 l 151 602 l 15 602 l 15 682 l 247 682 z"},"U":{"x_min":0,"x_max":708,"ha":708,"o":"m 550 682 l 648 682 l 648 295 q 648 216 636 176 q 625 136 608 110 q 591 83 567 62 q 486 -8 355 -8 q 222 -8 141 62 q 117 83 100 110 q 83 136 72 175 q 61 213 61 296 l 61 682 l 159 682 l 159 295 q 159 199 181 161 q 203 124 248 101 q 293 78 354 78 q 441 78 496 124 q 524 148 537 181 q 550 214 550 295 z"},"o":{"x_min":0,"x_max":552,"ha":552,"o":"m 278 450 q 380 450 448 384 q 516 318 516 218 q 516 121 447 56 q 378 -8 274 -8 q 173 -8 105 57 q 37 123 37 220 q 37 319 106 385 q 174 450 278 450 z m 273 370 q 209 370 168 328 q 127 286 127 221 q 127 157 169 116 q 211 75 277 75 q 342 75 384 116 q 426 158 426 222 q 426 286 382 328 q 339 370 273 370 z"},"N":{"x_min":0,"x_max":781,"ha":781,"o":"m 617 682 l 710 682 l 710 0 l 626 0 l 170 525 l 170 0 l 78 0 l 78 682 l 157 682 l 617 153 z"},"+":{"x_min":0,"x_max":584,"ha":584,"o":"m 250 116 l 250 312 l 56 312 l 56 394 l 250 394 l 250 589 l 333 589 l 333 394 l 528 394 l 528 312 l 333 312 l 333 116 z"},"G":{"x_min":0,"x_max":740,"ha":740,"o":"m 444 336 l 673 336 l 673 47 q 547 -8 423 -8 q 253 -8 152 91 q 51 190 51 335 q 51 488 156 589 q 261 691 419 691 q 477 691 528 678 q 580 666 659 633 l 659 533 q 537 604 417 604 q 305 604 229 528 q 152 452 152 341 q 152 225 229 151 q 305 77 426 77 q 484 77 566 104 l 575 107 l 575 249 l 444 249 z"},"q":{"x_min":0,"x_max":500,"ha":500,"o":"m 275 449 l 443 449 l 443 -229 l 354 -229 l 354 8 q 296 -8 256 -8 q 160 -8 98 57 q 35 121 35 220 q 35 325 100 387 q 165 449 275 449 z m 354 85 l 354 366 l 298 366 q 240 366 221 361 q 202 356 188 347 q 173 338 162 325 q 125 283 125 222 q 125 153 166 110 q 208 66 273 66 q 288 66 298 68 q 308 70 341 81 l 348 83 z"},"d":{"x_min":0,"x_max":510,"ha":510,"o":"m 363 682 l 452 682 l 452 0 l 262 0 q 163 0 103 63 q 44 126 44 232 q 44 331 106 395 q 168 459 265 459 q 310 459 363 440 z m 363 76 l 363 361 q 321 382 279 382 q 212 382 173 338 q 134 295 134 221 q 134 152 168 114 q 188 92 211 84 q 234 76 294 76 z"},"1":{"x_min":0,"x_max":500,"ha":500,"o":"m 202 682 l 300 682 l 300 0 l 202 0 z"},"5":{"x_min":0,"x_max":500,"ha":500,"o":"m 101 682 l 404 682 l 404 595 l 190 595 l 190 423 q 200 424 211 424 q 310 424 374 364 q 438 303 438 210 q 438 114 375 53 q 312 -7 211 -7 q 128 -7 50 33 l 50 134 q 124 86 194 86 q 255 86 297 122 q 339 158 339 210 q 339 264 293 301 q 248 337 180 337 q 122 337 101 327 z"}}}
